<svg id="Layer_1" data-name="Layer 1" xmlns="http://www.w3.org/2000/svg" viewBox="0 0 33.73 26.2"><defs><style>.cls-1,.cls-2,.cls-3{stroke:#000;}.cls-1,.cls-2{stroke-width:0.26px;}.cls-2,.cls-3{fill:#fff;}.cls-3{stroke-width:0.27px;}.cls-4{fill:#d0d0d0;}.cls-5{fill:#afafb0;}.cls-6{fill:#8f8f90;}.cls-7{fill:#6f6f70;}.cls-8{fill:#999;}.cls-9{fill:#000002;}</style></defs><title>soundtracks</title><g id="g1584"><path id="path1493" class="cls-1" d="M666.89,390.25l2.35-13.16-.34-3.12,24.17-2.89.27,3.19-22.26,2.61v.45l22,3.91L690.7,394.4Z" transform="translate(-666.73 -370.93)"/><path id="path1495" class="cls-2" d="M670.91,380.17l1.81-2.33,2.79.48-1.72,2.32Z" transform="translate(-666.73 -370.93)"/><path id="path1495-3" class="cls-3" d="M676.61,381.08l1.77-2.27,2.59.51-1.72,2.27Z" transform="translate(-666.73 -370.93)"/><path id="path1495-5" class="cls-2" d="M682,382.14l1.81-2.33,2.79.48-1.72,2.32Z" transform="translate(-666.73 -370.93)"/><path id="path1495-6" class="cls-2" d="M687.65,383.23l1.81-2.33,2.79.48-1.72,2.32Z" transform="translate(-666.73 -370.93)"/><path id="path1495-6-3" class="cls-2" d="M686.71,374.86l-1.6-2.45-2.61.33,1.5,2.47Z" transform="translate(-666.73 -370.93)"/><path id="path1495-6-4" class="cls-2" d="M687.9,372.12l1.71,2.41,2.81-.35-1.62-2.4Z" transform="translate(-666.73 -370.93)"/><path id="path1495-6-0" class="cls-2" d="M676.62,373.4l1.68,2.43,2.82-.32-1.59-2.42Z" transform="translate(-666.73 -370.93)"/><path id="path1495-6-0-9" class="cls-2" d="M671.06,374l1.68,2.43,2.82-.32L674,373.72Z" transform="translate(-666.73 -370.93)"/></g><g id="g1723"><path id="path1713" class="cls-2" d="M688.2,396l-4.09-3-1.88-4.68,10.61-8.64,4.71,2.39,2.72,4Z" transform="translate(-666.73 -370.93)"/><g id="g1711"><path id="path1617" class="cls-4" d="M700.28,386a9,9,0,0,1-.07,4,10,10,0,0,1-1.87,3.75,9.36,9.36,0,0,1-2.76,2.28,14.07,14.07,0,0,1-2.72.95,8.81,8.81,0,0,1-4.23-.14,10.29,10.29,0,0,1-3-1.41,9.23,9.23,0,0,1-2.69-3,12.4,12.4,0,0,1-1.06-2.91,9,9,0,0,1,.41-5.07,11.74,11.74,0,0,1,1.14-2.13,9.21,9.21,0,0,1,3-2.7,13.22,13.22,0,0,1,3.78-1.2,9.25,9.25,0,0,1,3.36.29,10.06,10.06,0,0,1,3.49,1.8,8.84,8.84,0,0,1,2.6,3.46,19.89,19.89,0,0,1,.64,2Zm-2.18-1.66a8.68,8.68,0,0,0-.78-1.28,4.87,4.87,0,0,0-.78-.84.53.53,0,0,0-.64.07c-.13.12-1.28,1.52-1.35,1.65a.85.85,0,0,0,.19,1,4.67,4.67,0,0,1,.72,1.3l.12.31h.12a8.56,8.56,0,0,0,1.64-.36c.93-.24,1.1-.31,1.23-.46l.05-.07-.17-.47C698.36,384.89,698.2,384.51,698.1,384.3ZM695,381a.52.52,0,0,0-.81.06,20.16,20.16,0,0,0-.93,2.16c0,.21,0,.36.09.43s.09,0,.2,0,.34-.22.79-.89a6.2,6.2,0,0,0,.77-1.27.56.56,0,0,0-.12-.5Zm-1.17,5a3.25,3.25,0,0,0-3-1.54,4,4,0,0,0-1.49.47,3.3,3.3,0,0,0-1.18,1.28,3.24,3.24,0,0,0,1.39,4.37,3.31,3.31,0,0,0,1.7.36,2.31,2.31,0,0,0,.77-.16,2.39,2.39,0,0,0,.72-.31,3.26,3.26,0,0,0,1.52-3.24A3.74,3.74,0,0,0,693.85,386Zm-1.52,1.51a1.28,1.28,0,0,1-.69,1.33,1.26,1.26,0,0,1-1.8-.93,1.3,1.3,0,0,1,.37-1.11,1.26,1.26,0,0,1,2.12.72Zm-3.48,4.28c-.11-.07-.31,0-.48.17a20.55,20.55,0,0,0-1.31,1.91.56.56,0,0,0,.69.71c.29-.09.28-.09,1-1.73.27-.63.3-.94.11-1.06Zm-1.32-1.1a5.12,5.12,0,0,1-.84-1.48l-.1-.25h-.14a18.57,18.57,0,0,0-2.13.54c-.54.16-.61.19-.68.27l-.08.08.16.45a7.8,7.8,0,0,0,1.55,2.61c.29.33.46.44.65.43s.32,0,1.11-.93.73-.82.76-1,0-.39-.27-.71Z" transform="translate(-666.73 -370.93)"/><path id="path1615" class="cls-5" d="M700.26,385.94a9.2,9.2,0,0,1,0,3.62,8.83,8.83,0,0,1-.88,2.47,8.93,8.93,0,0,1-1.49,2.13,9.83,9.83,0,0,1-2.38,1.83,11.59,11.59,0,0,1-3.29,1,9.39,9.39,0,0,1-9.05-4.29,7.2,7.2,0,0,1-.64-1.22,11.67,11.67,0,0,1-.75-2.64,9.43,9.43,0,0,1,2.48-7.56,9.76,9.76,0,0,1,2.37-1.82,11.59,11.59,0,0,1,3.29-1.05,11,11,0,0,1,1.44-.06,9.43,9.43,0,0,1,7.17,3.71,11.18,11.18,0,0,1,.78,1.21,12.26,12.26,0,0,1,.94,2.65Zm-1.89-1.07a8.27,8.27,0,0,0-.62-1.25,6.09,6.09,0,0,0-1.23-1.47.59.59,0,0,0-.75.19c-.33.38-1.21,1.48-1.26,1.57a.86.86,0,0,0,.2,1,5.22,5.22,0,0,1,.77,1.42c.06.2.07.21.16.22a4.36,4.36,0,0,0,1.29-.25,5.21,5.21,0,0,0,1.56-.49.43.43,0,0,0,.13-.15,2.22,2.22,0,0,0-.24-.75ZM695,381a.46.46,0,0,0-.48-.12c-.29.07-.33.14-.73,1a6.42,6.42,0,0,0-.53,1.33c0,.23,0,.39.1.47s.11.05.22,0,.35-.22.84-1c.64-1,.72-1.12.74-1.27a.65.65,0,0,0-.16-.5Zm-1.08,5.14a3.32,3.32,0,0,0-2.5-1.63,3,3,0,0,0-1,.06,3.27,3.27,0,1,0,3.58,4.7,3.29,3.29,0,0,0,.31-2.11,4.26,4.26,0,0,0-.37-1Zm-1.62,1.45a1.28,1.28,0,0,1-.68,1.28,1.24,1.24,0,1,1,.56-1.67.86.86,0,0,1,.12.39Zm-3.48,4.22a.61.61,0,0,0-.5.2c-.11.11-1.16,1.63-1.26,1.82a.59.59,0,0,0,.43.85.61.61,0,0,0,.54-.19c.08-.1.83-1.76.91-2s0-.57-.12-.64Zm-1.3-1.11a4.66,4.66,0,0,1-.79-1.38c-.11-.29-.12-.3-.21-.32a5.1,5.1,0,0,0-1.25.25,6.9,6.9,0,0,0-1.64.53.21.21,0,0,0-.09.16,9.35,9.35,0,0,0,.55,1.39,8.54,8.54,0,0,0,.74,1.17,5.94,5.94,0,0,0,.73.81.64.64,0,0,0,.79-.09c.17-.17,1.28-1.42,1.35-1.52a.77.77,0,0,0,.1-.27c0-.23,0-.42-.3-.74Z" transform="translate(-666.73 -370.93)"/><path id="path1613" class="cls-6" d="M700.21,385.74a9.34,9.34,0,1,1-10.45-7.25,9.37,9.37,0,0,1,8.08,2.79,9.12,9.12,0,0,1,1.86,2.85A13.31,13.31,0,0,1,700.21,385.74Zm-1.91-1.09a8.31,8.31,0,0,0-1.12-1.85c-.57-.69-.75-.8-1.09-.69a.74.74,0,0,0-.23.13c-.13.12-1.27,1.52-1.35,1.65a.75.75,0,0,0-.06.54,1.14,1.14,0,0,0,.26.48,4.31,4.31,0,0,1,.69,1.27,2.13,2.13,0,0,0,.11.3c.08.12.28.1,1.39-.18,1.32-.33,1.54-.41,1.69-.59s0-.08-.06-.41-.17-.48-.24-.65ZM695,381a.56.56,0,0,0-.9.09,21.33,21.33,0,0,0-.9,2.12.48.48,0,0,0,.12.5c.11.07.31,0,.48-.16a17.7,17.7,0,0,0,1.31-2A.56.56,0,0,0,695,381Zm-1.05,5.2a3.28,3.28,0,1,0,.38,1.49,3.65,3.65,0,0,0-.38-1.49Zm-1.69,1.48a1.22,1.22,0,0,1-.75,1.17,1.18,1.18,0,0,1-1,0,1.23,1.23,0,0,1-.26-2,1.44,1.44,0,0,1,1-.31,1.32,1.32,0,0,1,.76.39,1,1,0,0,1,.23.4A1.44,1.44,0,0,1,692.31,387.69Zm-3.44,4.1c-.17-.09-.43,0-.63.29s-1.06,1.51-1.15,1.67a.64.64,0,0,0-.06.53.59.59,0,0,0,.76.38c.26-.08.31-.16.76-1.19a5.08,5.08,0,0,0,.48-1.26A.49.49,0,0,0,688.87,391.79Zm-1.33-1.11a4.55,4.55,0,0,1-.78-1.39,1.3,1.3,0,0,0-.12-.29c-.11-.09-.35,0-1.87.35-.92.24-1.18.35-1.22.51a5,5,0,0,0,.32,1,8.06,8.06,0,0,0,1.61,2.4.62.62,0,0,0,.89,0c.22-.2,1.37-1.51,1.42-1.62C687.93,391.31,687.87,391.09,687.54,390.68Z" transform="translate(-666.73 -370.93)"/><path id="path1611" class="cls-7" d="M700.21,385.8a9.37,9.37,0,0,1-4.14,9.82,8.63,8.63,0,0,1-1.94.93A9.27,9.27,0,0,1,690,397a9.33,9.33,0,1,1,10.23-11.21Zm-2-1.27a8,8,0,0,0-1.43-2.16.77.77,0,0,0-.57-.31c-.26,0-.34.07-.77.59-1.08,1.31-1,1.24-1.06,1.48a.94.94,0,0,0,.28.78,5.37,5.37,0,0,1,.7,1.26l.13.35.1,0a5,5,0,0,0,1.53-.31c1.24-.32,1.45-.41,1.47-.63a6.14,6.14,0,0,0-.38-1.08ZM695,381a.53.53,0,0,0-.52-.14c-.3.07-.34.13-.77,1.11a5.39,5.39,0,0,0-.52,1.32.84.84,0,0,0,0,.29c.08.29.35.29.63,0,.13-.12,1-1.48,1.23-1.83A.65.65,0,0,0,695,381ZM694,386.14a3.33,3.33,0,0,0-2.38-1.66,3.06,3.06,0,0,0-1.51.12,2.81,2.81,0,0,0-.91.44,3.32,3.32,0,0,0-1.35,2.18,3.77,3.77,0,0,0,0,1,4.75,4.75,0,0,0,.34,1.08,3.34,3.34,0,0,0,3.38,1.74,4.55,4.55,0,0,0,1.08-.34,3.36,3.36,0,0,0,1.59-1.85,3.31,3.31,0,0,0,.1-1.85,4.55,4.55,0,0,0-.32-.82Zm-1.68,1.46a1.23,1.23,0,0,1-1,1.33,1.29,1.29,0,0,1-.77-.14,1.21,1.21,0,1,1,1.66-1.63A1,1,0,0,1,692.29,387.6Zm-3.45,4.17c-.08,0-.12,0-.26,0a.87.87,0,0,0-.27.18c-.06.06-.38.5-.7,1-.63.92-.68,1-.63,1.28a.63.63,0,0,0,1,.34.74.74,0,0,0,.14-.16c.06-.11.78-1.76.84-1.92.11-.32.06-.62-.13-.7Zm-1.29-1.1a4.52,4.52,0,0,1-.78-1.36c-.12-.3-.13-.33-.21-.35s-.33,0-2,.43c-.73.19-.93.28-1,.43s0,.09.08.46a7.66,7.66,0,0,0,1.71,2.84.75.75,0,0,0,.62.31c.26,0,.27,0,1.1-1,.64-.72.72-.81.75-.94.08-.28,0-.51-.28-.86Z" transform="translate(-666.73 -370.93)"/><path id="path1609" class="cls-8" d="M700.14,385.48c.14.73.19,1.09.22,1.43a9.29,9.29,0,0,1-.56,4.12,12.69,12.69,0,0,1-1,1.91,9.34,9.34,0,0,1-3.83,3.26,9.13,9.13,0,0,1-2.19.7,9.31,9.31,0,0,1-5-.46,12.86,12.86,0,0,1-1.87-1,9.34,9.34,0,0,1-3.26-3.83,9.13,9.13,0,0,1-.7-2.19,9.33,9.33,0,0,1,.45-5,12.69,12.69,0,0,1,1-1.91,9.34,9.34,0,0,1,3.83-3.26,9.21,9.21,0,0,1,2.19-.7,9.34,9.34,0,0,1,5,.45,12.69,12.69,0,0,1,1.91,1,9.34,9.34,0,0,1,3.64,4.8c.1.31.2.61.21.67Zm-2-1.3a7.87,7.87,0,0,0-.83-1.3c-.6-.76-.83-.91-1.19-.79-.18.06-.26.14-.67.63l-.6.73c-.4.49-.47.66-.4,1a1.15,1.15,0,0,0,.27.48,5.87,5.87,0,0,1,.81,1.56c.05.16.26.14,1.2-.09,1.59-.4,1.8-.47,1.92-.68l.05-.1-.18-.51a7.07,7.07,0,0,0-.39-.91ZM695,380.94a.57.57,0,0,0-.86.1,16.18,16.18,0,0,0-.94,2.2c-.1.64.41.73.82.15.16-.23,1-1.51,1.08-1.65A.64.64,0,0,0,695,380.94Zm-1,5.34a3.31,3.31,0,1,0,.31,1,4.07,4.07,0,0,0-.31-1Zm-1.77,1.44a1.27,1.27,0,0,1-.39.9.85.85,0,0,1-.46.24.83.83,0,0,1-.52.06,1.36,1.36,0,0,1-.74-.39.88.88,0,0,1-.22-.44.85.85,0,0,1-.07-.51,1.27,1.27,0,0,1,.38-.72,1.4,1.4,0,0,1,1-.31,1.28,1.28,0,0,1,.72.37.87.87,0,0,1,.24.41A1.34,1.34,0,0,1,692.28,387.72Zm-3.35,4.08c-.13-.13-.39-.07-.61.14s-1.12,1.55-1.26,1.8a.64.64,0,0,0,.09.79.58.58,0,0,0,.58.15c.31-.08.35-.13.77-1.1a5.64,5.64,0,0,0,.52-1.33A.6.6,0,0,0,688.93,391.8Zm-1.41-1.19a6.07,6.07,0,0,1-.42-.61,7.84,7.84,0,0,1-.43-1c0-.15-.29-.12-1.44.19-1.33.35-1.6.45-1.69.62s0,.1.14.57a7.91,7.91,0,0,0,1.63,2.69c.23.25.34.32.53.35a.66.66,0,0,0,.54-.18c.13-.12,1.2-1.32,1.36-1.52a.7.7,0,0,0,.09-.62,1.68,1.68,0,0,0-.31-.5Z" transform="translate(-666.73 -370.93)"/><path id="path1605" class="cls-9" d="M699.95,385.15l.09.47a10.13,10.13,0,0,1,.22,2.16,9.3,9.3,0,0,1-5.58,8.38,5.13,5.13,0,0,1-1.67.55,10.08,10.08,0,0,1-2.16.22,9.31,9.31,0,0,1-7.36-3.81,10.08,10.08,0,0,1-1.07-1.89,5.13,5.13,0,0,1-.52-1.68,8.54,8.54,0,0,1-.17-1.23,9.29,9.29,0,0,1,3.78-8.17,10.08,10.08,0,0,1,1.89-1.07,4.34,4.34,0,0,1,1-.39,12.73,12.73,0,0,1,1.89-.3,9.25,9.25,0,0,1,9.21,5.62,1.88,1.88,0,0,0,.13.28,3.92,3.92,0,0,1,.3.86Zm-1.85-1a8,8,0,0,0-1.36-2c-.39-.4-.78-.42-1.12,0s-1.22,1.48-1.28,1.59a.8.8,0,0,0,0,.63,1.46,1.46,0,0,0,.28.47,5.1,5.1,0,0,1,.68,1.26,1.53,1.53,0,0,0,.13.31c.11.13.4.09,1.55-.21s1.47-.4,1.62-.6l.06-.08-.2-.57c-.11-.31-.25-.67-.32-.81ZM695,380.89a.62.62,0,0,0-1,.09,21.41,21.41,0,0,0-.91,2.14.62.62,0,0,0,0,.35c0,.14.07.17.16.22a.25.25,0,0,0,.24,0c.21-.07.39-.27.76-.82a11.09,11.09,0,0,0,.86-1.36A.68.68,0,0,0,695,380.89Zm-1,5.26a3.34,3.34,0,0,0-3.42-1.82,4.3,4.3,0,0,0-1.14.36,3.37,3.37,0,0,0-1.75,3.39,4.15,4.15,0,0,0,.36,1.14,3.38,3.38,0,0,0,2.91,1.78,3.58,3.58,0,0,0,2-.65,3.35,3.35,0,0,0,1.32-2.16A3.24,3.24,0,0,0,694,386.14Zm-1.83,1.42a1.24,1.24,0,0,1-.39.94,1.29,1.29,0,0,1-.91.29,1.24,1.24,0,0,1-.73-.38,1.29,1.29,0,0,1-.29-.91,1.24,1.24,0,0,1,.38-.73,1.29,1.29,0,0,1,.91-.29,1.15,1.15,0,0,1,.94.74A1.55,1.55,0,0,1,692.14,387.56Zm-3.24,4.18c-.16-.24-.55-.14-.83.21-.15.2-1.08,1.55-1.16,1.69a.65.65,0,0,0-.06.56.57.57,0,0,0,.34.39.78.78,0,0,0,.5,0,.8.8,0,0,0,.41-.38c.08-.15.22-.48.67-1.53a1.65,1.65,0,0,0,.2-.7.36.36,0,0,0-.08-.29Zm-1.42-1.2a4.8,4.8,0,0,1-.78-1.39,1.28,1.28,0,0,0-.12-.28c-.05-.07-.22-.09-.43-.05s-1.66.41-2.11.55-.45.15-.56.24-.11.13-.11.19a9.15,9.15,0,0,0,.48,1.32,8,8,0,0,0,1.42,2,.63.63,0,0,0,.38.23.54.54,0,0,0,.36,0c.21-.07.3-.15,1-1s.78-.89.77-1.2S687.73,390.86,687.48,390.54Z" transform="translate(-666.73 -370.93)"/></g></g></svg>